<svg xmlns="http://www.w3.org/2000/svg" width="24" height="18.863" viewBox="0 0 24 18.863">
  <path id="Path_3402" data-name="Path 3402" d="M198.808,118.812h.127l11.775,4.251a.311.311,0,0,1,.17.425l-1.7,2.381h-20.7l-1.53-2.338a.33.33,0,0,1,.128-.425l11.69-4.336c-.042.085,0,.042.042.042h0Zm.042,2a2.04,2.04,0,1,0,0,4.081,2.032,2.032,0,0,0,2-2.04,2.005,2.005,0,0,0-2-2.04Zm0,.553a1.433,1.433,0,0,1,1.445,1.445,1.467,1.467,0,0,1-2.933,0,1.527,1.527,0,0,1,1.488-1.445Zm10.117,6.519v2.21H188.69v-2.21Zm0,4.1a2.218,2.218,0,0,1-.255,1.7,8.12,8.12,0,0,1-1.913,1.913,11.641,11.641,0,0,1-6.249,2.04h-3.783a11.281,11.281,0,0,1-5.781-1.913,6.3,6.3,0,0,1-1.913-1.913,2.367,2.367,0,0,1-.468-1.87h20.362v.042Z" transform="translate(-186.914 -118.77)" fill="#12123c"/>
</svg>
